<svg width="326" height="325" xmlns="http://www.w3.org/2000/svg" xmlns:xlink="http://www.w3.org/1999/xlink" xml:space="preserve" overflow="hidden"><g transform="translate(-204 -134)"><path d="M222.083 112.396C225.13 104.948 226.823 96.8229 226.823 88.0208 226.823 52.474 198.047 23.6979 162.5 23.6979 126.953 23.6979 98.1771 52.474 98.1771 88.0208 98.1771 96.4844 99.8698 104.609 102.917 112.396 90.3906 114.766 81.25 125.938 81.25 138.802 81.25 153.698 93.4375 165.885 108.333 165.885 120.859 165.885 131.354 157.083 134.401 145.573L136.094 145.573C139.141 157.083 149.635 165.885 162.161 165.885 174.688 165.885 185.182 157.083 188.229 145.573L189.922 145.573C192.969 157.083 203.464 165.885 215.99 165.885 230.885 165.885 243.073 153.698 243.073 138.802 243.75 125.599 234.271 114.766 222.083 112.396Z" fill="#E29F9B" transform="matrix(1.00308 0 0 1 204 134)"/><path d="M162.5 179.427C152.005 179.427 142.526 175.365 135.417 168.932 128.984 174.688 120.859 178.411 112.057 179.089L136.094 237.656 138.464 243.073 162.5 301.302 209.557 187.214 212.943 179.089C204.141 178.411 196.016 174.349 189.583 168.932 182.474 175.365 172.995 179.427 162.5 179.427ZM167.578 253.906C164.531 254.245 161.484 254.922 158.099 255.26L152.682 242.057C160.469 241.38 167.24 240.026 173.672 239.01L167.578 253.906ZM185.859 209.557C174.349 212.266 159.792 214.974 142.188 215.99L136.771 202.786C161.484 201.432 180.443 197.37 192.63 193.984L185.859 209.557Z" fill="#E29F9B" transform="matrix(1.00308 0 0 1 204 134)"/></g></svg>