<svg width="209" height="210" xmlns="http://www.w3.org/2000/svg" xmlns:xlink="http://www.w3.org/1999/xlink" xml:space="preserve" overflow="hidden"><g transform="translate(-647 -425)"><path d="M186.141 164.587 158.927 137.374C155.226 133.673 150.219 132.367 145.429 133.238L135.85 123.658C144.341 112.773 149.348 98.8396 149.348 84.0354 149.348 48.1135 119.957 18.7229 84.0354 18.7229 48.1135 18.7229 18.7229 48.1135 18.7229 84.0354 18.7229 119.957 48.1135 149.348 84.0354 149.348 98.8396 149.348 112.555 144.341 123.658 135.85L133.238 145.429C132.367 150.219 133.673 155.226 137.374 158.927L164.587 186.141C167.635 189.189 171.554 190.712 175.473 190.712 179.392 190.712 183.31 189.189 186.358 186.141 192.019 180.045 192.019 170.466 186.141 164.587ZM83.8177 136.068C55.0802 136.068 31.5677 112.555 31.5677 83.8177 31.5677 55.0802 55.0802 31.5677 83.8177 31.5677 112.555 31.5677 136.068 55.0802 136.068 83.8177 136.068 112.555 112.555 136.068 83.8177 136.068Z" fill="#FFFFFF" transform="matrix(1 0 0 1.00478 647 425)"/></g></svg>